<svg width="1096" height="350" viewBox="0 0 1096 350" fill="none" xmlns="http://www.w3.org/2000/svg">
  <path d="M140.012 270.178V350l139.986-80.856v-79.812l-139.986 80.846z" fill="#667EEA"/>
  <path d="M202.676 116.015l69.071-39.912L140.012 0v79.82l62.664 36.195z" fill="#4C51BF"/>
  <path d="M85.607 139.848v79.846l54.403 31.417v-79.81l-54.403-31.453z" fill="#A3BFFA"/>
  <path d="M279.998 90.41l-139.986 80.891v79.81l139.986-80.857V90.411zM8.336 76.057l68.657 40.145L140.01 79.82V0L8.336 76.057z" fill="#667EEA"/>
  <path d="M69.095 229.233v-98.96L0 90.374v178.767l140.009 80.857v-79.822l-70.914-40.943z" fill="#A3BFFA"/>
  <path d="M376.901 128.709c9.531 0 17.86 1.932 24.987 5.796 7.212 3.778 12.751 9.102 16.615 15.971 3.864 6.869 5.796 14.726 5.796 23.57 0 8.759-1.975 16.572-5.925 23.442-3.864 6.869-9.402 12.279-16.615 16.229-7.127 3.864-15.413 5.796-24.858 5.796h-35.935v-90.804h35.935zm-1.932 68.521c7.384 0 13.18-2.018 17.388-6.053 4.207-4.036 6.311-9.746 6.311-17.131 0-7.47-2.104-13.223-6.311-17.259-4.208-4.121-10.004-6.182-17.388-6.182h-8.759v46.625h8.759zM460.923 128.709v90.804h-25.245v-90.804h25.245zM502.862 199.033h37.739v20.48h-66.074v-19.192l37.351-51.262h-37.351v-20.35h66.074V147.9l-37.739 51.133zM581.853 199.033h37.738v20.48h-66.074v-19.192l37.352-51.262h-37.352v-20.35h66.074V147.9l-37.738 51.133zM715.84 128.709l-31.942 61.952v28.852h-25.373v-28.852l-31.943-61.952h28.851l15.972 35.033 15.971-35.033h28.464z" fill="#4C51BF"/>
  <path d="M787.31 172.887c5.324 1.202 9.531 3.864 12.622 7.986 3.177 4.035 4.766 8.672 4.766 13.91 0 7.728-2.662 13.782-7.986 18.161-5.323 4.379-12.794 6.569-22.411 6.569H729.35v-90.804h43.534c9.274 0 16.53 2.061 21.767 6.182 5.324 4.122 7.986 9.918 7.986 17.388 0 5.324-1.417 9.789-4.25 13.395-2.748 3.521-6.44 5.925-11.077 7.213zm-32.715-8.114h12.751c6.354 0 9.531-2.619 9.531-7.857 0-5.41-3.177-8.114-9.531-8.114h-12.751v15.971zm14.683 34.389c6.354 0 9.531-2.662 9.531-7.985 0-2.748-.859-4.852-2.576-6.312-1.631-1.459-3.993-2.189-7.084-2.189h-14.554v16.486h14.683zM873.206 204.701h-32.2l-4.894 14.812h-26.533l33.102-90.804h29.108l32.973 90.804H878.1l-4.894-14.812zm-6.311-19.32l-9.789-29.367-9.66 29.367h19.449zM997.096 219.513h-25.245l-33.616-50.748v50.748H912.99v-90.804h25.245l33.616 51.391v-51.391h25.245v90.804zM1065.19 219.513l-28.47-39.8v39.8h-25.24v-90.804h25.24v39.155l28.21-39.155h29.11l-33.36 44.049 35.03 46.755h-30.52z" fill="#2D3748"/>
</svg>
